<svg id="Layer_1" data-name="Layer 1" xmlns="http://www.w3.org/2000/svg" width="195.57" height="96.74" viewBox="0 0 195.57 96.74">
  <defs>
    <style>
      .cls-1 {
        fill: #141414;
      }

      .cls-2 {
        isolation: isolate;
      }

      .cls-3 {
        fill: #39b54a;
      }

      .cls-4 {
        fill: #c1272d;
      }

      .cls-5 {
        fill: #fcee21;
      }

      .cls-6 {
        fill: #0071bc;
      }

      .cls-7 {
        fill: #fff;
      }

      .cls-8 {
        fill: #c64ab5;
      }

      .cls-9 {
        fill: #3ed8d2;
      }

      .cls-10 {
        fill: #0311de;
      }

      .cls-11 {
        fill: #ff8e43;
      }
    </style>
  </defs>
  <g>
    <g>
      <g id="A">
        <path class="cls-1" d="M23.69,0A23.68,23.68,0,1,1,0,23.68,23.69,23.69,0,0,1,23.69,0Z"/>
      </g>
      <g class="cls-2">
        <path class="cls-3" d="M32.45,38.83l-2.78-7.66H17.54L14.9,38.83H9.42L20.88,8.53h5.59L38,38.83ZM23.66,13.08h-.13a10.82,10.82,0,0,1-.45,2.17L18.94,26.93h9.3L24.07,15.25A11.49,11.49,0,0,1,23.66,13.08Z"/>
      </g>
    </g>
    <g>
      <g id="B">
        <path class="cls-1" d="M73.08,0A23.69,23.69,0,1,1,49.39,23.69,23.7,23.7,0,0,1,73.08,0Z"/>
      </g>
      <g class="cls-2">
        <path class="cls-4" d="M83.29,30a7.94,7.94,0,0,1-2.93,6.39,11.38,11.38,0,0,1-7.56,2.43H62.89V8.53h9.57a11.41,11.41,0,0,1,6.87,1.88,6.05,6.05,0,0,1,2.52,5.09,6.76,6.76,0,0,1-1.5,4.35,7.92,7.92,0,0,1-4,2.67v.09A8.15,8.15,0,0,1,81.46,25,7.22,7.22,0,0,1,83.29,30ZM76.52,16.47a3.3,3.3,0,0,0-1.33-2.79,6.79,6.79,0,0,0-4-1H67.93v8.39h3.23a5.93,5.93,0,0,0,4-1.2A4.29,4.29,0,0,0,76.52,16.47ZM78,29.87a4.11,4.11,0,0,0-1.55-3.41,7.58,7.58,0,0,0-4.68-1.2H67.93v9.41h4.24a6.36,6.36,0,0,0,4.24-1.31A4.26,4.26,0,0,0,78,29.87Z"/>
      </g>
    </g>
    <g>
      <g id="Y">
        <path class="cls-1" d="M171.87,0a23.69,23.69,0,1,1-23.69,23.69A23.69,23.69,0,0,1,171.87,0Z"/>
      </g>
      <g class="cls-2">
        <path class="cls-5" d="M174.27,27.85v11h-5V28L159.42,8.53h5.72l6.1,12.65a6.27,6.27,0,0,1,.44,1.12c.1.34.17.61.25.83h0a8.28,8.28,0,0,1,.69-1.91L179,8.53h5.31Z"/>
      </g>
    </g>
    <g>
      <g id="X">
        <path class="cls-1" d="M122.47,0A23.69,23.69,0,1,1,98.79,23.69,23.7,23.7,0,0,1,122.47,0Z"/>
      </g>
      <g class="cls-2">
        <path class="cls-6" d="M129.59,38.83l-6.41-11a5.14,5.14,0,0,1-.3-.76,5.44,5.44,0,0,0-.22-.76h-.09c-.11.27-.19.52-.27.77a4.94,4.94,0,0,1-.33.75l-6.53,11h-6.12l10.14-15.19L110.2,8.53h6.19l5.4,10a10.25,10.25,0,0,1,1,2.27h.08c.3-.79.53-1.31.65-1.56s2.21-3.8,6.27-10.66h5.68l-9.46,15,9.58,15.28Z"/>
      </g>
    </g>
  </g>
  <g>
    <g>
      <g id="A-2" data-name="A">
        <path class="cls-7" d="M23.69,49.38A23.68,23.68,0,1,1,0,73.06,23.68,23.68,0,0,1,23.69,49.38Z"/>
      </g>
      <g class="cls-2">
        <path class="cls-8" d="M32.45,88.21l-2.78-7.66H17.54L14.9,88.21H9.42L20.88,57.9h5.59L38,88.21ZM23.66,62.46h-.13a11.13,11.13,0,0,1-.45,2.17L18.94,76.31h9.3L24.07,64.63A11.67,11.67,0,0,1,23.66,62.46Z"/>
      </g>
    </g>
    <g>
      <g id="B-2" data-name="B">
        <path class="cls-7" d="M73.08,49.37A23.69,23.69,0,1,1,49.39,73.06,23.7,23.7,0,0,1,73.08,49.37Z"/>
      </g>
      <g class="cls-2">
        <path class="cls-9" d="M83.29,79.38a7.92,7.92,0,0,1-2.93,6.39,11.39,11.39,0,0,1-7.56,2.44H62.89V57.9h9.57a11.34,11.34,0,0,1,6.87,1.89,6,6,0,0,1,2.52,5.09,6.75,6.75,0,0,1-1.5,4.34,7.86,7.86,0,0,1-4,2.67V72a8,8,0,0,1,5.07,2.37A7.17,7.17,0,0,1,83.29,79.38ZM76.52,65.84a3.3,3.3,0,0,0-1.33-2.79,6.8,6.8,0,0,0-4-1H67.93v8.38h3.23a5.93,5.93,0,0,0,4-1.2A4.27,4.27,0,0,0,76.52,65.84ZM78,79.25a4.1,4.1,0,0,0-1.55-3.41,7.52,7.52,0,0,0-4.68-1.21H67.93v9.42h4.24a6.36,6.36,0,0,0,4.24-1.31A4.28,4.28,0,0,0,78,79.25Z"/>
      </g>
    </g>
    <g>
      <g id="Y-2" data-name="Y">
        <path class="cls-7" d="M171.87,49.37a23.69,23.69,0,1,1-23.69,23.69A23.7,23.7,0,0,1,171.87,49.37Z"/>
      </g>
      <g class="cls-2">
        <path class="cls-10" d="M174.27,77.22v11h-5V77.34l-9.85-19.43h5.72l6.1,12.64a6.27,6.27,0,0,1,.44,1.12c.1.34.17.61.25.83h0a8.2,8.2,0,0,1,.69-1.9L179,57.91h5.31Z"/>
      </g>
    </g>
    <g>
      <g id="X-2" data-name="X">
        <path class="cls-7" d="M122.47,49.37A23.69,23.69,0,1,1,98.79,73.06,23.7,23.7,0,0,1,122.47,49.37Z"/>
      </g>
      <g class="cls-2">
        <path class="cls-11" d="M129.59,88.21l-6.41-11a5.22,5.22,0,0,1-.3-.77,5.86,5.86,0,0,0-.22-.76h-.09c-.11.28-.19.52-.27.78a4.94,4.94,0,0,1-.33.75l-6.53,11h-6.12L119.46,73,110.2,57.9h6.18l5.41,10a10.7,10.7,0,0,1,1,2.26h.08c.3-.79.53-1.31.65-1.56s2.21-3.79,6.27-10.66h5.68l-9.46,15,9.58,15.29Z"/>
      </g>
    </g>
  </g>
</svg>
