<svg id="Layer_1" data-name="Layer 1" xmlns="http://www.w3.org/2000/svg" width="171.15" height="62.86" viewBox="0 0 171.15 62.86">
  <defs>
    <style>
      .cls-1 {
        fill: #f2f2f2;
      }

      .cls-2 {
        fill: #e5e5e5;
      }

      .cls-3 {
        fill: #fff;
      }
    </style>
  </defs>
  <g id="LB_Pressed" data-name="LB Pressed">
    <path class="cls-1" d="M134.22.76C92-4.86,38.28,22.22,20,32.13c-.27.17-.56.32-.83.47a2.72,2.72,0,0,1-.25.16c-.18.09-.35.2-.53.31a1.57,1.57,0,0,1-.29.16,4.4,4.4,0,0,1-.45.3l-.29.18a3,3,0,0,1-.42.27l-.27.21-.4.27-.25.19a3.37,3.37,0,0,0-.37.29,1.56,1.56,0,0,0-.25.17L15,35.4l-.22.19c-.12.1-.23.18-.35.29a1.8,1.8,0,0,0-.2.19,2.28,2.28,0,0,0-.34.29.9.9,0,0,1-.18.16l-.33.32-.17.16a2.48,2.48,0,0,1-.32.33,1.58,1.58,0,0,0-.12.15,2.73,2.73,0,0,0-.33.35.63.63,0,0,1-.11.12c-.11.12-.22.26-.31.37l-.1.1-.31.41-.07.08a5.15,5.15,0,0,0-.32.45s0,0,0,0-.22.33-.33.47,97.69-42,122-34.38c15.53,4.87,27.22,15.33,32.8,18.23l3.42-6.35C156.69,13.78,142.07,1.8,134.22.76Z" transform="translate(0 0)"/>
    <g>
      <path class="cls-2" d="M166.17,24l.46.19Z" transform="translate(0 0)"/>
      <path class="cls-2" d="M165.69,23.72c-5.58-2.88-17.26-13.36-32.81-18.23C108.67-2.07,11.57,39.58,10.9,39.86c-5,7.44-2.21,15.33-10.84,23l-.06,0C33.16,45,99.17,24.75,118.75,28.53c9.12,1.76,19.9,12.09,31.08,24.76l15.85-29.58Z" transform="translate(0 0)"/>
      <path class="cls-3" d="M165.69,23.72l.48.25Z" transform="translate(0 0)"/>
    </g>
    <path class="cls-3" d="M150.55,54.1c.24.3.47.57.73.84L167.66,24.4l3.49-6.53c-.34-.07-.68-.13-1-.23s-.68-.19-1-.27l-3.42,6.34L149.83,53.3l.72.8h0" transform="translate(0 0)"/>
  </g>
</svg>
