<svg id="Layer_1" data-name="Layer 1" xmlns="http://www.w3.org/2000/svg" width="70.66" height="128.04" viewBox="0 0 70.66 128.04">
  <defs>
    <style>
      .cls-1 {
        fill: #ebebeb;
      }

      .cls-2 {
        fill: #edf4f4;
      }

      .cls-3 {
        fill: #dbdbdb;
      }

      .cls-4 {
        fill: #e3e3e3;
      }

      .cls-5 {
        fill: #d6d6d6;
      }

      .cls-6 {
        fill: #f0f0f0;
      }

      .cls-7 {
        fill: #e8e8e8;
      }

      .cls-8 {
        fill: #e6e6e6;
      }

      .cls-9 {
        fill: #e5e5e5;
      }
    </style>
  </defs>
  <g>
    <g id="Up">
      <g>
        <path class="cls-1" d="M40.43,41.55V7.33a.78.78,0,0,1,0-.14L40.51,7l.08-.13c.49-.81,2.1-1.52,4.53-2L46,4.66a7.42,7.42,0,0,1,1-.14l.16,0L48,4.38l1-.1,1-.09,2.37-.07,1,0c7.32,0,13.06,1.42,13.06,3.23V41.55L53.49,54.6Z"/>
        <path class="cls-2" d="M53.49,4.6c8.09,0,12.57,1.62,12.57,2.73v34L53.49,53.9,40.93,41.34v-34a.2.2,0,0,1,0,0h0l0-.14,0,0c.16-.25.91-1.11,4.19-1.76h.06l.83-.17.09,0c.33-.06.59-.09.79-.11l.19,0,.92-.12h0l1-.11h0l1-.08h1.25c.33,0,.65,0,1,0h.13l1,0m0-1-1.05,0h-.12l-1,0h-.16c-.33,0-.66,0-1,0H50l-1,.09h0l-1,.11h0L47,4h-.06c-.32,0-.64.08-.94.13l-.07,0c-.3,0-.6.11-.88.18h0c-2.42.47-4.25,1.21-4.86,2.22a.56.56,0,0,0-.11.17h0c0,.06,0,.12,0,.18s0,0,0,0l0,.15a1.65,1.65,0,0,0,0,.21V41.76L53.49,55.31,67.06,41.76V7.33h0c0-2.5-6.8-3.73-13.57-3.73Z"/>
      </g>
      <path class="cls-3" d="M45,4.35h0l.88-.19H46c.3-.05.62-.1.94-.13H47l1-.13h0l1-.11h0l1-.08h.14l1,0h.17l1,0h.12l1.06,0c6.77,0,13.56,1.23,13.56,3.73l2.75-2.77C68.91,3.19,67.1,1.85,63.67,1A44.3,44.3,0,0,0,53.49,0,44.12,44.12,0,0,0,43.31,1c-2.93.71-4.71,1.79-5.72,3l2.57,2.57C40.78,5.56,42.6,4.82,45,4.35Z"/>
      <path class="cls-4" d="M67.06,7.33h0V41.76l3.6-3.63V7.33a4.94,4.94,0,0,0-.85-2.77L67.06,7.33Z"/>
      <path class="cls-5" d="M39.93,7.33a1.65,1.65,0,0,1,0-.21A.83.83,0,0,1,40,7a.08.08,0,0,1,0,0c0-.06,0-.12,0-.18v0a.62.62,0,0,1,.1-.16L37.59,4a4.94,4.94,0,0,0-1.26,3.33V38.14l3.6,3.62Z"/>
    </g>
    <g id="Down">
      <g>
        <path class="cls-1" d="M17.17,51.21c-7.14,0-12.75-1.32-13-3.08a.78.78,0,0,1,0-.14V13.77L17.17.71,30.23,13.77V48s0,.09,0,.15C29.91,49.89,24.3,51.21,17.17,51.21Z"/>
        <path class="cls-2" d="M17.17,1.41,29.73,14V48a.13.13,0,0,1,0,.06c-.19,1.12-4.66,2.66-12.55,2.66S4.81,49.17,4.61,48.06a.56.56,0,0,0,0-.07V14L17.17,1.41m0-1.41L3.6,13.56V48h0a2,2,0,0,0,0,.23c.41,2.33,7,3.49,13.54,3.49s13.14-1.16,13.55-3.49a2,2,0,0,0,0-.23V13.56L17.17,0Z"/>
      </g>
      <path class="cls-6" d="M30.73,48l2.75,2.77A5,5,0,0,0,34.33,48V17.18l-3.6-3.62Z"/>
      <path class="cls-7" d="M30.71,48.22c-.41,2.33-7,3.49-13.54,3.49S4,50.55,3.62,48.22a2,2,0,0,1,0-.23L.82,50.76c.93,1.36,2.74,2.7,6.17,3.52a44.55,44.55,0,0,0,10.18,1,44.84,44.84,0,0,0,10.17-1c3.43-.82,5.24-2.16,6.14-3.52L30.73,48A2,2,0,0,1,30.71,48.22Z"/>
      <path class="cls-4" d="M3.6,48h0V13.56L0,17.18V48.83l.09.24a5.22,5.22,0,0,0,.73,1.69L3.6,48Z"/>
    </g>
  </g>
  <g>
    <g id="Right">
      <g>
        <path class="cls-1" d="M13.77,87.56.71,74.5,13.77,61.44H48c1.81,0,3.23,5.74,3.23,13.06S49.79,87.56,48,87.56Z"/>
        <path class="cls-2" d="M48,61.94c1.14,0,2.73,4.78,2.73,12.56S49.12,87.06,48,87.06H14L1.41,74.5,14,61.94H48m0-1H13.56L0,74.5,13.56,88.06H48c5,0,5-27.12,0-27.12Z"/>
      </g>
      <path class="cls-8" d="M48,60.94l2.76-2.77A5,5,0,0,0,48,57.32H17.17L13.56,61Z"/>
      <path class="cls-7" d="M48,88.06H13.56l3.6,3.62H49.48l.34-.35a4.88,4.88,0,0,0,.92-.5L48,88.06Z"/>
      <path class="cls-6" d="M50.74,58.17,48,60.94c5,0,5,27.12,0,27.12l2.76,2.77c1.37-.93,2.71-2.74,3.55-6.14a45.59,45.59,0,0,0,1-10.19,45.46,45.46,0,0,0-1-10.19C53.45,60.91,52.11,59.1,50.74,58.17Z"/>
    </g>
    <g id="left">
      <g>
        <path class="cls-1" d="M7.34,123.92c-1.82,0-3.25-5.74-3.25-13.06S5.52,97.8,7.34,97.8H41.55l13.07,13.06L41.55,123.92Z"/>
        <path class="cls-2" d="M41.35,98.3l12.56,12.56L41.35,123.42h-34c-1.15,0-2.75-4.78-2.75-12.56S6.19,98.3,7.34,98.3h34m.41-1H7.34c-5,0-5,27.12,0,27.12H41.76l13.56-13.57L41.76,97.3Z"/>
      </g>
      <path class="cls-3" d="M41.76,97.3l-3.6-3.62H7.34a5.06,5.06,0,0,0-2.78.84L7.34,97.3Z"/>
      <path class="cls-5" d="M7.34,97.3h0L4.56,94.53c-1.37.93-2.68,2.73-3.53,6.14a50.92,50.92,0,0,0,0,20.38c.85,3.4,2.16,5.21,3.53,6.14l2.78-2.77C2.35,124.42,2.35,97.3,7.34,97.3Z"/>
      <path class="cls-9" d="M7.34,124.42l-2.78,2.77a5.08,5.08,0,0,0,2.78.85H38.16l3.6-3.62Z"/>
    </g>
  </g>
</svg>
