<svg id="Layer_1" data-name="Layer 1" xmlns="http://www.w3.org/2000/svg" width="168.77" height="83.38" viewBox="0 0 168.77 83.38">
  <defs>
    <style>
      .cls-1 {
        fill: #1a1a1a;
      }

      .cls-2 {
        fill: #404040;
      }

      .cls-3 {
        fill: #262626;
      }

      .cls-4 {
        opacity: 0.06;
      }

      .cls-5 {
        fill: #fff;
      }

      .cls-6 {
        fill: #212121;
      }

      .cls-7 {
        fill: #e5e5e5;
      }

      .cls-8 {
        fill: #bfbfbf;
      }

      .cls-9 {
        fill: #d9d9d9;
      }

      .cls-10 {
        fill: #dedede;
      }
    </style>
  </defs>
  <g>
    <g>
      <path class="cls-1" d="M168.77,41.7A41.69,41.69,0,1,1,127.07,0,41.68,41.68,0,0,1,168.77,41.7Z"/>
      <path class="cls-2" d="M127.07,0h-1.26l-.75,0,1,20q.52,0,1,0V0Zm-4,.19-.16,0h-.15c-.56.06-1.12.13-1.67.21l2.84,19.79c.35,0,.69-.09,1-.12L123.07.19Zm-3.95.57-.09,0h-.43c-.48.1-1,.2-1.44.32l4.74,19.43c.33-.08.67-.16,1-.22L119.12.76Zm-3.89,1-.8.24h0l-.06,0h0l-.06,0h0l0,0-.93.31,6.59,18.88c.32-.11.65-.22,1-.31L115.23,1.71ZM111.46,3c-.62.25-1.23.52-1.84.8L118,22c.32-.15.63-.29,1-.42L111.46,3ZM107.83,4.7c-.59.31-1.18.63-1.75,1l10.09,17.28c.29-.18.6-.35.9-.51L107.83,4.7Zm-3.45,2c-.56.36-1.11.73-1.66,1.13l11.7,16.22.86-.59L104.38,6.72Zm-3.25,2.33q-.78.63-1.53,1.29l13.18,15c.27-.23.53-.45.81-.67L101.13,9.05Zm-3,2.64-.84.84h0l0,0h0l0,0h0l0,0h0l-.43.45,14.56,13.71c.24-.25.49-.5.74-.74L98.12,11.69ZM95.38,14.6h0l0,0h0v0h0l0,0h0c-.38.45-.74.9-1.1,1.36l0,0,15.8,12.26c.21-.27.44-.54.66-.81l-15.2-13Zm-2.45,3.16-.15.23h0v0h0c-.32.46-.63.92-.93,1.39l16.9,10.7c.19-.29.38-.59.58-.87L92.93,17.76Zm-2.14,3.38-.45.81h0c-.17.31-.33.62-.49.93l17.85,9c.15-.31.32-.62.49-.92l-17.4-9.87ZM89,24.71l-.2.45h0l0,.06h0l0,.06h0c-.18.42-.35.84-.52,1.27l18.63,7.26c.13-.32.26-.64.4-1L89,24.71Zm-1.45,3.72c-.09.27-.18.54-.26.81h0v0h0v0h0v0h0v0h0v0h0v0h0v0h0v0h0v0h0v0h0v0h0v0h0v0h0v0h0v0h0s0,0,0,0h0v0h0v0h0c-.06.18-.11.36-.16.55l19.24,5.43c.1-.33.2-.66.31-1l-19-6.35Zm-1.09,3.85q-.18.8-.33,1.59c0,.13-.05.25-.07.37l19.68,3.55c.06-.34.13-.68.21-1l-19.49-4.5Zm-.71,3.94-.15,1.28h0v0h0v0h0v0h0l-.06.59,19.93,1.66c0-.35.07-.7.12-1l-19.84-2.6Zm-.33,4c0,.32,0,.64,0,1h0v0h0v.06h0v.24h0v0h0v0h0v0h0v0h0v0h0v0h0v.4l20-.23V41.7c0-.26,0-.53,0-.79l-20-.71Zm20,2.82-20,1.18c0,.57.08,1.14.13,1.7h0v0h0v0h0v0h0c0,.06,0,.12,0,.18l19.89-2.13c0-.34-.07-.69-.09-1Zm.23,2.08L85.89,48.18v0h0v0h0v0h0c.09.53.18,1.05.28,1.57h0v0h0v0h0v0h0c0,.05,0,.11,0,.17l19.59-4q-.1-.51-.18-1Zm.41,2-19.37,5c.17.65.35,1.29.54,1.93l19.11-5.9c-.1-.33-.19-.67-.28-1Zm.61,2-18.8,6.81c.23.63.47,1.25.73,1.87l18.45-7.72c-.13-.32-.26-.64-.38-1Zm.8,1.9L89.41,59.6c0,.07.07.15.11.22h0v0h0c.17.37.36.73.55,1.1h0v0h0v0h0v0h0l.17.32,17.63-9.45c-.16-.31-.32-.62-.47-.93Zm1,1.83L91.3,63.12l.3.48h0v0h0v0h0c.24.38.49.77.74,1.14L109,53.71c-.19-.29-.38-.58-.56-.88Zm1.16,1.73L93.52,66.45l.23.3h0v0h0v0h0v0h0v0h0v0h0l0,0h0v0h0v0h0v0h0v0h0v0h0v0h0l0,0h0c.23.3.47.6.71.89l15.5-12.64c-.22-.27-.44-.55-.64-.83Zm1.32,1.62L96.05,69.55c.45.49.9,1,1.37,1.45l14.23-14.06c-.25-.24-.49-.5-.72-.76Zm1.47,1.49L98.86,72.39l.76.68h.06l0,0h0l.67.57,12.82-15.35c-.27-.22-.54-.46-.79-.69ZM114,59,101.93,75l.93.68.69.48,11.3-16.5L114,59Zm1.72,1.18-10.49,17,.1.07h0l0,0h0c.5.3,1,.6,1.52.88h0l9.66-17.51-.9-.52Zm1.82,1-8.81,18,.34.17h.16l0,0h0c.42.2.84.39,1.27.57l7.93-18.36c-.31-.13-.63-.28-.94-.43Zm1.9.82-7,18.72c.63.24,1.25.45,1.89.66l6.13-19-1-.34Zm2,.63L116.21,82l.24.06h.2q.75.2,1.5.36l4.26-19.55c-.34-.07-.67-.15-1-.24Zm2,.44-3.31,19.73c.5.08,1,.16,1.51.22l.47.06,2.36-19.86c-.35,0-.69-.09-1-.15Zm2.07.25-1.41,20,.4,0h.09l1,0h.54l.47-20c-.35,0-.71,0-1,0Zm3.16,0-1,.05.47,20,.57,0h.12l1.19-.06h.12l-1.42-20Zm2.07-.25c-.34.06-.69.11-1,.15l2.37,19.86c.62-.08,1.23-.16,1.83-.26h.15l-3.32-19.73Zm2-.44c-.33.09-.67.17-1,.24L136,82.42l.22,0h.2l.76-.18h.36L138,82l-5.2-19.32Zm2-.63-1,.34,6.14,19,.92-.31H141l.77-.29-7-18.71Zm1.9-.83-.94.44L143.62,80c.35-.15.7-.3,1-.47h.16l.61-.29-8.81-18Zm1.82-1c-.3.18-.6.36-.9.52l9.67,17.51.18-.1h0l0,0h.1l0,0h0c.47-.26.92-.53,1.37-.8l-10.49-17ZM140.16,59c-.28.21-.56.42-.85.61l11.3,16.5c.25-.17.51-.35.75-.53h0l0,0h0l0,0h0l0,0h.15l0,0h0l.6-.45L140.16,59Zm1.6-1.34c-.25.24-.52.47-.78.69L153.8,73.7h.34l0,0h0l0,0h0c.34-.28.66-.57,1-.86h.06v0h0l0,0h0L141.76,57.66Zm1.47-1.49c-.23.26-.47.52-.72.77l14.23,14h0v0h0c.31-.32.62-.64.92-1h0l0,0h0v0h0l0,0h0l.32-.35L143.23,56.17Zm1.32-1.61c-.2.27-.42.55-.64.82L159.41,68h0v0h0v0h0v0h0v0h0v0h0c.2-.26.41-.52.61-.79h0l0,0h0l0,0h0v0h0a0,0,0,0,0,0,0h0l.36-.47L144.55,54.56Zm1.16-1.74c-.18.3-.37.59-.56.88l16.64,11.1.14-.21v0h0c.31-.47.61-.95.9-1.43h0l0,0h0L145.71,52.82Zm1-1.83c-.15.32-.31.63-.47.93l17.63,9.45.27-.51c.14-.28.28-.55.41-.83h0l0,0h0v0h0v0h0c0-.11.1-.22.16-.33L146.69,51Zm.8-1.9c-.12.32-.25.64-.38,1l18.45,7.71.29-.69h0v0h0v0h0v0h0c.14-.36.27-.71.4-1.06l-18.8-6.81Zm.6-2c-.08.33-.18.67-.28,1L166.93,54l.12-.41h0v0h0v0h0v0h0v0h0v0h0v0h0v0h0v0h0v0h0a0,0,0,0,1,0,0h0l.33-1.21-19.38-5Zm.42-2c0,.34-.12.68-.18,1l19.59,4c.11-.57.22-1.15.31-1.72,0-.09,0-.17,0-.25l-19.76-3.07Zm.22-2.08c0,.35,0,.7-.08,1l19.88,2.13c0-.24.05-.47.07-.71h0v0h0v0h0v0c0-.38.06-.76.08-1.14v-.06l-20-1.18Zm20-2.82-20,.71c0,.27,0,.53,0,.8V42l20,.23V41.8h0v0h0v0h0v0h0v-.09h0v0h0v-.17h0v0h0V41.2h0v0h0c0-.15,0-.29,0-.44h0v-.09h0v-.15h0c0-.09,0-.18,0-.27Zm-.33-4-19.83,2.61c0,.34.08.69.11,1l19.93-1.66c0-.16,0-.31,0-.47h0v0h0v0h0v0h0v0h0c0-.46-.1-.92-.16-1.37Zm-.71-3.93-19.49,4.5c.08.33.15.68.21,1l19.68-3.56-.18-.95h0v0h0v0h0v0h0v0h0v0h0v0h0v0h0v0h0v0h0v0h0v0h0l-.06-.32h0v-.06h0v0h0l-.06-.24Zm-1.09-3.85-19,6.36q.16.49.3,1l19.25-5.44h0v0h0v0h0v0h0c-.14-.49-.29-1-.45-1.46h0v0h0c0-.1-.07-.19-.1-.29Zm-1.45-3.73L146.9,32.85c.14.32.27.64.4,1l18.63-7.27c-.24-.62-.5-1.24-.77-1.85Zm-1.81-3.57L146,31c.17.3.34.61.49.92l17.85-9c-.27-.52-.54-1-.83-1.55h0v0h0l0,0h0v0h0v0h0v0h0v0h0v0h0Zm-2.14-3.37-16.36,11.5c.2.28.39.57.58.86l16.89-10.7-.13-.2h0v0h0l-.66-1h0v0h0l-.27-.38Zm-2.45-3.16-15.19,13q.33.39.66.81L160,16.14l-.11-.15h0l0,0h0l0,0h0l0,0h0v0h0l0,0h0l0,0h0l0,0h0l0,0h0l0,0h0v0h0v0h0v0h0v0h0v0h0v0h0v0h0v0h0v0h0v0h0v0h0v0h0l0,0h0l0,0h0l0,0h0l0,0h0l0,0h0l0,0h0l0,0h0l0,0h0l0,0h0l0,0h0l0,0h0l0,0h0l0,0h0l0,0h0l0,0h0l0,0h0l0,0h0v0h0l0,0h0l0,0h0l-.13-.15ZM156,11.68l-13.89,14.4.74.74L157.42,13.1h0c-.46-.49-.92-1-1.4-1.42ZM153,9,140.56,24.7c.27.21.54.44.8.67l13.18-15-.23-.21h0v0h0L153,9Zm-3.25-2.33L138.87,23.48c.29.19.58.38.86.59L151.42,7.84,151,7.51h-.06l-.51-.36h-.08l-.55-.36Zm-3.45-2-9.24,17.74c.31.16.61.33.91.5L148.06,5.66l-.43-.25h0l-.06,0h0l0,0h0c-.4-.23-.8-.44-1.21-.66ZM142.68,3l-7.49,18.54.95.41,8.38-18.16h-.32c-.5-.23-1-.44-1.52-.65ZM138.9,1.7l-5.66,19.18,1,.32,6.59-18.89-1.34-.44h-.15l-.42-.13ZM135,.76l-3.79,19.63,1,.22L137,1.18h-.23l-.82-.19h-.23c-.23-.06-.45-.1-.67-.14Zm-4-.57L129.17,20.1c.35,0,.7.07,1,.12L133.05.42l-.5-.06h-.21l-.9-.1h-.11l-.27,0Zm-4-.19V20l1.06,0,.94-20c-.41,0-.81,0-1.22,0h-.78Z"/>
    </g>
    <path class="cls-3" d="M127.07,2A39.69,39.69,0,1,1,87.39,41.7,39.75,39.75,0,0,1,127.07,2m0-2a41.69,41.69,0,1,0,41.7,41.7A41.69,41.69,0,0,0,127.07,0Z"/>
    <g class="cls-4">
      <path class="cls-5" d="M163.09,41.7a36,36,0,1,1-36-36A36,36,0,0,1,163.09,41.7Z"/>
    </g>
    <g>
      <path class="cls-6" d="M127.07,69.83A28.13,28.13,0,1,1,155.2,41.7,28.15,28.15,0,0,1,127.07,69.83Z"/>
      <path class="cls-1" d="M127.07,16.58A25.13,25.13,0,1,1,102,41.7a25.15,25.15,0,0,1,25.12-25.12m0-6A31.13,31.13,0,1,0,158.2,41.7a31.12,31.12,0,0,0-31.13-31.12Z"/>
    </g>
  </g>
  <g id="LS_pressed" data-name="LS pressed">
    <g>
      <path class="cls-7" d="M83.39,41.7A41.7,41.7,0,1,1,41.69,0,41.69,41.69,0,0,1,83.39,41.7Z"/>
      <path class="cls-8" d="M41.69,0H40.43l-.75,0,.94,20,1.07,0V0Zm-4,.19-.17,0h-.14c-.56.06-1.12.13-1.67.21l2.84,19.79c.34,0,.69-.09,1-.12L37.69.19Zm-4,.57-.09,0h-.42c-.48.1-1,.2-1.44.32l4.73,19.43c.34-.08.68-.16,1-.22L33.73.76Zm-3.88,1-.8.24h0L29,2h0l-.05,0h0l-.05,0-.93.31,6.6,18.88c.32-.11.65-.22,1-.31L29.85,1.71ZM26.07,3c-.62.25-1.23.52-1.83.8L32.62,22c.31-.15.63-.29,1-.42L26.07,3ZM22.44,4.7c-.59.31-1.17.63-1.75,1L30.78,22.94c.3-.18.6-.35.91-.51L22.44,4.7ZM19,6.72c-.56.36-1.11.73-1.65,1.13L29,24.07c.29-.2.57-.4.87-.59L19,6.72ZM15.75,9.05c-.53.42-1,.85-1.54,1.29l13.19,15c.26-.23.53-.45.8-.67L15.75,9.05Zm-3,2.64c-.29.27-.56.55-.84.84h0l0,0h0v0h0v0h0l-.43.45L25.9,26.82c.23-.25.48-.5.73-.74L12.74,11.69ZM10,14.6h0v0h0v0H9.87v0h0c-.38.45-.75.9-1.1,1.36l0,0,15.8,12.26q.32-.4.66-.81L10,14.6ZM7.55,17.76,7.39,18h0v0h0c-.32.46-.62.92-.92,1.39l16.9,10.7c.18-.29.38-.59.58-.87L7.55,17.76ZM5.41,21.14,5,22H5l-.49.93,17.85,9c.16-.31.32-.62.5-.92L5.41,21.14Zm-1.8,3.57c-.07.15-.14.3-.2.45h0l0,.06h0a.14.14,0,0,0,0,.06h0c-.18.42-.36.84-.52,1.27l18.63,7.26c.13-.32.26-.64.4-1L3.61,24.71ZM2.15,28.43c-.09.27-.17.54-.26.81h0v0h0v0h0v0h0v0h0v0h0v0h0v0h0v0h0v0h0v0h0v0h0v0h0v0h0v0h0v0h0s0,0,0,0h0v0h0v0h0c-.06.18-.11.36-.16.55l19.25,5.43q.13-.5.3-1l-19-6.35ZM1.07,32.28C1,32.81.83,33.34.73,33.87c0,.13,0,.25-.07.37l19.69,3.55c.06-.34.13-.68.2-1L1.07,32.28ZM.36,36.22c-.06.42-.11.85-.15,1.28h0v0h0v0h0v0h0c0,.2,0,.39-.05.59l19.93,1.66c0-.35.07-.7.11-1L.36,36.22ZM0,40.2l0,1H0v0H0v.06H0v.24H0v0H0v0H0v0H0v0H0v0H0v0H0c0,.13,0,.27,0,.4L20,42V41.7c0-.26,0-.53,0-.79L0,40.2ZM20,43,.07,44.2c0,.57.08,1.14.14,1.7h0v0h0v0h0v0h0a1.1,1.1,0,0,0,0,.18l19.88-2.13c0-.34-.06-.69-.08-1Zm.22,2.08L.5,48.17v0h0v0h0v0h0c.08.53.17,1.05.28,1.57h0v0h0v0h0v0h0l0,.16,19.59-4c-.06-.34-.13-.68-.18-1Zm.42,2-19.37,5c.16.65.34,1.29.54,1.93L21,48.12c-.1-.33-.2-.67-.28-1Zm.61,2L2.48,55.91c.23.63.47,1.25.73,1.87l18.45-7.72c-.13-.32-.26-.64-.37-1Zm.79,1.9L4,59.6l.1.22h0v0h0c.18.37.36.73.55,1.1h0l0,0h0v0h0v0h0c0,.11.11.22.17.33l17.62-9.46c-.16-.31-.32-.62-.47-.93Zm1,1.83L5.92,63.12l.29.48h0v0h0v0h0c.24.38.49.77.74,1.14l16.63-11.1c-.19-.29-.38-.58-.55-.88Zm1.15,1.73L8.14,66.45l.22.3h0l0,0h0l0,0h0l0,0h0l0,0h0v0h0v0h0v0h0v0h0v0h0l0,0h0l0,0h0l0,0h0l0,0h0c.23.3.46.6.7.89l15.5-12.64c-.22-.27-.43-.55-.64-.83Zm1.32,1.62L10.67,69.55c.44.49.9,1,1.37,1.45L26.26,56.94c-.24-.24-.49-.5-.72-.76ZM27,57.67,13.48,72.39c.25.23.5.46.76.68h.06l0,0h0l.66.57L27.8,58.36c-.27-.22-.53-.46-.79-.69ZM28.62,59,16.55,75c.3.23.61.46.93.68l.69.48,11.29-16.5c-.28-.2-.57-.4-.84-.61Zm1.72,1.18-10.49,17,.1.07h0l0,0h0c.5.3,1,.6,1.52.88h0l9.67-17.51c-.31-.17-.61-.34-.9-.52Zm1.82,1-8.81,18,.33.17h.16l0,0h0q.63.3,1.26.57L33.1,61.62c-.32-.13-.64-.28-.94-.43Zm1.9.82L27,80.73c.62.24,1.25.45,1.89.66l6.12-19-1-.34Zm2,.63L30.82,82l.24.06h.21q.74.2,1.5.36L37,62.88c-.34-.07-.68-.15-1-.24Zm2,.44L34.73,82.81c.5.08,1,.16,1.51.22l.47.06,2.36-19.86c-.34,0-.69-.09-1-.15Zm2.07.25-1.41,20,.41,0h.09l1,0h.54l.46-20c-.35,0-.7,0-1,0Zm3.16,0-1.05.05.48,20,.56,0h.13l1.18-.06h.13l-1.43-20Zm2.08-.25c-.34.06-.69.11-1,.15l2.37,19.86c.61-.08,1.22-.16,1.83-.26h.15L45.35,63.08Zm2-.44c-.33.09-.67.17-1,.24l4.27,19.54.22,0h.21l.76-.18h.36l.39-.1-5.2-19.32Zm2-.63-1,.34,6.13,19,.92-.31h.19l.78-.29L49.33,62Zm1.91-.83-1,.44L58.23,80c.35-.15.7-.3,1.05-.47h.15l.62-.29-8.81-18Zm1.81-1c-.29.18-.59.36-.89.52l9.66,17.51.18-.1h0l0,0h.1l0,0h0l1.37-.8-10.5-17ZM54.77,59c-.27.21-.56.42-.84.61l11.3,16.5.75-.53h0l0,0h0l0,0h0l0,0h.14l0,0h0l.6-.45L54.77,59Zm1.61-1.34c-.26.24-.52.47-.79.69L68.41,73.7h.34l0,0h0l0,0h0l1-.86h0l0,0h0l0,0h0L56.38,57.66Zm1.47-1.49c-.23.26-.48.52-.72.77L71.36,71h0l0,0h0l.93-1h0l0,0h0v0h0l0,0h0c.1-.12.21-.24.32-.35L57.85,56.17Zm1.32-1.61c-.21.27-.42.55-.64.82L74,68h0l0,0h0v0h0l0,0h0l0,0h0l0,0h0c.21-.26.42-.52.62-.79h0l0,0h0v0h0v0h0a0,0,0,0,0,0,0h0c.11-.16.23-.31.35-.47L59.17,54.56Zm1.15-1.74c-.17.3-.36.59-.55.88L76.4,64.8l.14-.21,0,0h0c.31-.47.61-.95.9-1.43h0v0h0L60.32,52.82Zm1-1.83c-.14.32-.3.63-.46.93l17.62,9.45.27-.51.42-.83h0v0h0v0h0v0h0c.06-.11.11-.22.16-.33L61.3,51Zm.8-1.9c-.12.32-.24.64-.37,1l18.45,7.71c.1-.23.19-.46.28-.69h0v0h0v0h0v0h0c.13-.36.27-.71.4-1.06L62.1,49.09Zm.61-2c-.09.33-.18.67-.28,1L81.54,54c0-.14.08-.27.13-.41h0v0h0v0h0v0h0v0h0v0h0v0h0v0h0v0h0v0h0a0,0,0,0,0,0,0h0c.12-.4.23-.81.33-1.21l-19.37-5Zm.41-2q-.07.51-.18,1l19.59,4c.12-.57.22-1.15.32-1.72a1.87,1.87,0,0,1,0-.25L63.12,45.09ZM63.35,43c0,.35-.05.7-.09,1l19.89,2.13c0-.24,0-.47.07-.71h0v0h0v0h0v0c0-.38.06-.76.09-1.14v-.06L63.35,43Zm20-2.82-20,.71c0,.27,0,.53,0,.8V42l20,.23V41.8h0v0h0v0h0v0h0v-.09h0v0h0v-.17h0v0h0V41.2h0v0h0c0-.15,0-.29,0-.44h0v-.09h0v-.15h0a2.44,2.44,0,0,1,0-.27Zm-.33-4L63.2,38.81c0,.34.08.69.11,1l19.93-1.66c0-.16,0-.31,0-.47h0v0h0v0h0v0h0v0h0c0-.46-.1-.92-.15-1.37Zm-.72-3.93-19.48,4.5.21,1,19.68-3.56c-.06-.31-.12-.63-.19-.95h0v0h0v0h0v0h0v0h0v0h0v0h0v0h0v0h0v0h0v0h0v0h0l-.07-.32h0v-.06h0v0h0l-.06-.24Zm-1.08-3.85-19,6.36q.16.49.3,1l19.25-5.44h0v0h0v0h0v0h0c-.14-.49-.29-1-.45-1.46h0v0h0c0-.1-.07-.19-.1-.29Zm-1.46-3.73L61.51,32.85c.14.32.28.64.4,1l18.63-7.27c-.24-.62-.5-1.24-.77-1.85ZM78,21.12,60.58,31c.17.3.33.61.49.92l17.84-9c-.26-.52-.54-1-.82-1.55h0l0,0h0v0h0l0,0h0v0h0v0h0v0h0v0h0Zm-2.14-3.37L59.46,29.25c.2.28.4.57.58.86l16.9-10.7-.13-.2h0l0,0h0c-.21-.33-.43-.66-.65-1h0v0h0l-.26-.38Zm-2.45-3.16-15.2,13q.34.39.66.81l15.8-12.27L74.52,16h0l0,0h0v0h0v0h0v0h0v0h0l0,0h0l0,0h0l0,0h0l0,0h0l0,0h0l0,0h0l0,0h0l0,0h0l0,0h0l0,0h0l0,0h0v0h0v0h0v0h0v0h0v0h0v0h0v0h0l0,0h0l0,0h0l0,0h0l0,0h0l0,0h0l0,0h0l0,0h0l0,0h0l0,0h0l0,0h0l0,0h0v0h0v0h0v0h0v0h0v0h0l-.12-.15Zm-2.75-2.91L56.75,26.08c.25.24.5.49.73.74L72,13.1h0c-.46-.49-.93-1-1.41-1.42ZM67.62,9,55.17,24.7c.28.21.55.44.81.67l13.18-15-.23-.21h0l0,0h0c-.41-.35-.83-.7-1.26-1ZM64.38,6.71,53.48,23.48c.29.19.58.38.86.59L66,7.84l-.46-.33h0L65,7.12h0l0,0h0l0,0h0l-.55-.36Zm-3.45-2L51.69,22.43l.91.5L62.68,5.66l-.44-.25h0l-.05,0h0l0,0h0c-.4-.23-.81-.44-1.21-.66ZM57.29,3,49.81,21.56l.95.41L59.13,3.81h-.31c-.5-.23-1-.44-1.53-.65ZM53.52,1.7,47.86,20.88l1,.32L55.42,2.31l-1.33-.44h-.15l-.42-.13ZM49.63.76,45.85,20.39l1,.22L51.59,1.18h-.23L50.54.94H50.3L49.63.76Zm-4-.57L43.79,20.1c.34,0,.69.07,1,.12L47.66.42l-.5-.06H47l-.9-.1H46l-.27,0Zm-4-.19V20l1.05,0,.94-20c-.4,0-.81,0-1.21,0h-.78Z"/>
    </g>
    <path class="cls-9" d="M41.69,2A39.69,39.69,0,1,1,2,41.7,39.75,39.75,0,0,1,41.69,2m0-2a41.69,41.69,0,1,0,41.7,41.7A41.69,41.69,0,0,0,41.69,0Z"/>
    <g class="cls-4">
      <path d="M77.71,41.7a36,36,0,1,1-36-36A36,36,0,0,1,77.71,41.7Z"/>
    </g>
    <g>
      <path class="cls-10" d="M41.69,69.83A28.13,28.13,0,1,1,69.81,41.7,28.16,28.16,0,0,1,41.69,69.83Z"/>
      <path class="cls-7" d="M41.69,16.58A25.13,25.13,0,1,1,16.56,41.7,25.15,25.15,0,0,1,41.69,16.58m0-6A31.13,31.13,0,1,0,72.81,41.7,31.12,31.12,0,0,0,41.69,10.58Z"/>
    </g>
  </g>
</svg>
