<svg id="Layer_1" data-name="Layer 1" xmlns="http://www.w3.org/2000/svg" width="178.53" height="104.03" viewBox="0 0 178.53 104.03">
  <defs>
    <style>
      .cls-1 {
        fill: #c1272d;
      }

      .cls-2, .cls-4 {
        isolation: isolate;
        opacity: 0.25;
      }

      .cls-3 {
        fill: #3ed8d2;
      }

      .cls-4 {
        fill: #fff;
      }
    </style>
  </defs>
  <g>
    <path class="cls-1" d="M124.5,20.6c1.4-2,1.2-2.9,1.2-2.9s.2-.9-1.2-2.9-15-13.6-15.7-14S80.3-1.4,77.4,2.1s-2.6,15.6-2.6,15.6-.3,12.1,2.6,15.6,30.7,1.7,31.4,1.3S123.1,22.6,124.5,20.6Z" transform="translate(0.02 0.02)"/>
    <path class="cls-2" d="M124.5,20.6c1.4-2,1.2-2.9,1.2-2.9s.2-.9-1.2-2.9c-.9-1.3-6.9-6.6-11.2-10.3a27.84,27.84,0,0,0-3.4,13.2,26.73,26.73,0,0,0,3.4,13.2C117.6,27.2,123.6,21.9,124.5,20.6Z" transform="translate(0.02 0.02)"/>
  </g>
  <g>
    <path class="cls-1" d="M20.6,1.3C18.6-.1,17.7.1,17.7.1s-.9-.2-2.9,1.2S1.2,16.3.8,17-1.4,45.5,2.1,48.4,17.7,51,17.7,51s12.1.3,15.6-2.6S35,17.7,34.6,17,22.6,2.6,20.6,1.3Z" transform="translate(0.02 0.02)"/>
    <path class="cls-2" d="M20.6,1.3C18.6-.1,17.7.1,17.7.1s-.9-.2-2.9,1.2c-1.3.9-6.6,6.9-10.3,11.2a27.84,27.84,0,0,0,13.2,3.4,26.73,26.73,0,0,0,13.2-3.4C27.2,8.1,21.9,2.1,20.6,1.3Z" transform="translate(0.02 0.02)"/>
  </g>
  <g>
    <path class="cls-1" d="M52.2,49.8c2,1.4,2.9,1.2,2.9,1.2s.9.2,2.9-1.2,13.6-15,14-15.7S74.2,5.6,70.7,2.7,55.1.1,55.1.1,43-.2,39.5,2.7s-1.7,30.7-1.3,31.4S50.2,48.4,52.2,49.8Z" transform="translate(0.02 0.02)"/>
    <path class="cls-2" d="M52.2,49.8c2,1.4,2.9,1.2,2.9,1.2s.9.2,2.9-1.2c1.3-.9,6.6-6.9,10.3-11.2a27.84,27.84,0,0,0-13.2-3.4,26.73,26.73,0,0,0-13.2,3.4C45.6,42.9,50.9,48.9,52.2,49.8Z" transform="translate(0.02 0.02)"/>
  </g>
  <g>
    <path class="cls-1" d="M175.9,2.3C173-1.2,145.2.6,144.5,1s-14.3,12-15.7,14-1.2,2.9-1.2,2.9-.2.9,1.2,2.9,15,13.6,15.7,14S173,37,175.9,33.5s2.6-15.6,2.6-15.6S178.7,5.8,175.9,2.3Z" transform="translate(0.02 0.02)"/>
    <path class="cls-2" d="M140,4.7c-4.3,3.7-10.3,9-11.2,10.3-1.4,2-1.2,2.9-1.2,2.9s-.2.9,1.2,2.9c.9,1.3,6.9,6.6,11.2,10.3a27.84,27.84,0,0,0,3.4-13.2A27.84,27.84,0,0,0,140,4.7Z" transform="translate(0.02 0.02)"/>
  </g>
  <g>
    <path class="cls-3" d="M124.5,73.6c1.4-2,1.2-2.9,1.2-2.9s.2-.9-1.2-2.9-15-13.6-15.7-14-28.5-2.2-31.4,1.3-2.6,15.6-2.6,15.6-.3,12.1,2.6,15.6,30.7,1.7,31.4,1.3S123.1,75.6,124.5,73.6Z" transform="translate(0.02 0.02)"/>
    <path class="cls-4" d="M124.5,73.6c1.4-2,1.2-2.9,1.2-2.9s.2-.9-1.2-2.9c-.9-1.3-6.9-6.6-11.2-10.3a27.84,27.84,0,0,0-3.4,13.2,26.73,26.73,0,0,0,3.4,13.2C117.6,80.2,123.6,74.9,124.5,73.6Z" transform="translate(0.02 0.02)"/>
  </g>
  <g>
    <path class="cls-3" d="M20.6,54.3c-2-1.4-2.9-1.2-2.9-1.2s-.9-.2-2.9,1.2S1.2,69.3.8,70s-2.2,28.5,1.3,31.4S17.7,104,17.7,104s12.1.3,15.6-2.6S35,70.7,34.6,70,22.6,55.6,20.6,54.3Z" transform="translate(0.02 0.02)"/>
    <path class="cls-4" d="M20.6,54.3c-2-1.4-2.9-1.2-2.9-1.2s-.9-.2-2.9,1.2c-1.3.9-6.6,6.9-10.3,11.2a27.84,27.84,0,0,0,13.2,3.4,26.73,26.73,0,0,0,13.2-3.4C27.2,61.1,21.9,55.1,20.6,54.3Z" transform="translate(0.02 0.02)"/>
  </g>
  <g>
    <path class="cls-3" d="M52.2,102.8c2,1.4,2.9,1.2,2.9,1.2s.9.2,2.9-1.2,13.6-15,14-15.7,2.2-28.5-1.3-31.4-15.6-2.6-15.6-2.6S43,52.8,39.5,55.7s-1.7,30.7-1.3,31.4S50.2,101.4,52.2,102.8Z" transform="translate(0.02 0.02)"/>
    <path class="cls-4" d="M52.2,102.8c2,1.4,2.9,1.2,2.9,1.2s.9.2,2.9-1.2c1.3-.9,6.6-6.9,10.3-11.2a27.84,27.84,0,0,0-13.2-3.4,26.73,26.73,0,0,0-13.2,3.4C45.6,95.9,50.9,101.9,52.2,102.8Z" transform="translate(0.02 0.02)"/>
  </g>
  <g>
    <path class="cls-3" d="M175.9,55.2c-2.9-3.5-30.7-1.7-31.4-1.3s-14.3,12-15.7,14-1.2,2.9-1.2,2.9-.2.9,1.2,2.9,15,13.6,15.7,14,28.5,2.2,31.4-1.3,2.6-15.6,2.6-15.6S178.7,58.7,175.9,55.2Z" transform="translate(0.02 0.02)"/>
    <path class="cls-4" d="M140,57.6c-4.3,3.7-10.3,9-11.2,10.3-1.4,2-1.2,2.9-1.2,2.9s-.2.9,1.2,2.9c.9,1.3,6.9,6.6,11.2,10.3a27.32,27.32,0,0,0,0-26.4Z" transform="translate(0.02 0.02)"/>
  </g>
</svg>
