<svg id="Layer_1" data-name="Layer 1" xmlns="http://www.w3.org/2000/svg" width="286" height="94" viewBox="0 0 286 94">
  <defs>
    <style>
      .cls-1 {
        fill: #c1272d;
      }

      .cls-2 {
        fill: #cf2a32;
      }

      .cls-3 {
        fill: #e02d39;
      }

      .cls-4 {
        fill: #3ed8d2;
      }

      .cls-5 {
        fill: #30d5cd;
      }

      .cls-6 {
        fill: #1fd2c6;
      }
    </style>
  </defs>
  <g>
    <g>
      <g>
        <path class="cls-1" d="M47,92.5A45.5,45.5,0,1,1,92.5,47,45.54,45.54,0,0,1,47,92.5Z"/>
        <path class="cls-2" d="M47,3A44,44,0,1,1,3,47,44,44,0,0,1,47,3m0-3A47,47,0,1,0,94,47,46.95,46.95,0,0,0,47,0Z"/>
      </g>
      <circle class="cls-3" cx="47" cy="47" r="27.3"/>
    </g>
    <g>
      <g>
        <path class="cls-4" d="M143,92.5A45.5,45.5,0,1,1,188.5,47,45.54,45.54,0,0,1,143,92.5Z"/>
        <path class="cls-5" d="M143,3A44,44,0,1,1,99,47,44,44,0,0,1,143,3m0-3a47,47,0,1,0,47,47A46.95,46.95,0,0,0,143,0Z"/>
      </g>
      <circle class="cls-6" cx="143" cy="47" r="27.3"/>
      <g>
        <path d="M125.1,33.5h4.6V55.9h13.4v4h-18Z"/>
        <path d="M151.9,44.8c2.8.1,5.7-.9,5.7-4.1a3.71,3.71,0,0,0-4-3.7c-2.9,0-4.4,2.6-4.3,5.3h-4.2c.2-5,3.4-8.8,8.6-8.8,4,0,8.2,2.3,8.2,6.9,0,2.6-1.1,4.7-3.7,5.5V46c3,.6,4.7,3.1,4.7,6.5,0,4.9-4.3,7.9-9.2,7.9-6,0-9-3.6-9.1-9h4.2c-.1,3.1,1.6,5.5,4.9,5.5,2.8,0,5-1.7,5-4.6,0-4-3.4-4.5-6.8-4.4V44.8Z"/>
      </g>
    </g>
    <g>
      <g>
        <path class="cls-4" d="M239,92.5A45.5,45.5,0,1,1,284.5,47,45.54,45.54,0,0,1,239,92.5Z"/>
        <path class="cls-5" d="M239,3a44,44,0,1,1-44,44A44,44,0,0,1,239,3m0-3a47,47,0,1,0,47,47A46.95,46.95,0,0,0,239,0Z"/>
      </g>
      <circle class="cls-6" cx="239" cy="47" r="27.3"/>
      <g>
        <path d="M218.7,33.5h12.6c5.8,0,8.7,2.7,8.7,7.1,0,5.1-3.5,6.4-4.4,6.7v.1c1.6.2,3.9,1.4,3.9,5.6,0,3.1.4,5.9,1.4,7h-5a7.36,7.36,0,0,1-.7-3.9c0-4.8-1-7-5.3-7h-6.8V60h-4.6V33.5Zm4.6,12.1h7.6q4.5,0,4.5-4.2c0-3.4-2.2-4-4.6-4h-7.5Z"/>
        <path d="M250.3,44.8c2.8.1,5.7-.9,5.7-4.1a3.71,3.71,0,0,0-4-3.7c-2.9,0-4.4,2.6-4.3,5.3h-4.2c.2-5,3.4-8.8,8.6-8.8,4,0,8.2,2.3,8.2,6.9,0,2.6-1.1,4.7-3.7,5.5V46c3,.6,4.7,3.1,4.7,6.5,0,4.9-4.3,7.9-9.2,7.9-6,0-9-3.6-9.1-9h4.2c-.1,3.1,1.6,5.5,4.9,5.5,2.8,0,5-1.7,5-4.6,0-4-3.4-4.5-6.8-4.4V44.8Z"/>
      </g>
    </g>
  </g>
</svg>
