<svg id="Layer_1" data-name="Layer 1" xmlns="http://www.w3.org/2000/svg" width="28.4" height="46.7" viewBox="0 0 28.4 46.7">
  <defs>
    <style>
      .cls-1 {
        fill: #fff;
      }

      .cls-2 {
        fill: #3ed8d2;
      }
    </style>
  </defs>
  <g>
    <path class="cls-1" d="M14.2,1.7A12.5,12.5,0,0,1,26.7,14.2V32.5a12.5,12.5,0,0,1-25,0V14.2A12.5,12.5,0,0,1,14.2,1.7m0-1.7A14.25,14.25,0,0,0,0,14.2V32.5a14.2,14.2,0,1,0,28.4,0V14.2A14.25,14.25,0,0,0,14.2,0Z"/>
    <path class="cls-2" d="M14.2,1.7A12.5,12.5,0,0,0,1.7,14.2V32.5a12.5,12.5,0,0,0,25,0V14.2A12.5,12.5,0,0,0,14.2,1.7Z"/>
  </g>
</svg>
