<?xml version="1.0" encoding="UTF-8"?>
<svg id="Layer_1" data-name="Layer 1" xmlns="http://www.w3.org/2000/svg" viewBox="0 0 129.97 79.12">
  <defs>
    <style>
      .cls-1 {
        fill: #231f20;
        stroke-width: 0px;
      }

      .cls-2 {
        stroke-width: .5px;
      }

      .cls-2, .cls-3 {
        fill: #fff;
        stroke: #231f20;
        stroke-miterlimit: 10;
      }

      .cls-3 {
        stroke-width: .25px;
      }
    </style>
  </defs>
  <g>
    <path class="cls-1" d="M15.69,3.48c.81-.03,1.38.5,1.74,1.67.3.94.46,2.13.46,3.53,0,1.4-.06,2.82-.21,4.23-.38,3.57-1.09,6.89-2.24,9.65-1.56,3.72-3.7,5.51-6.71,6.08-3.44.64-5.53.25-8.61,2.2-.73-10,1.51-15.61,8.32-22.41,1.91-1.91,2.98-2.76,5.3-4.18.82-.49,1.47-.74,1.95-.76ZM8.55,9.54c-3.11,5.17-4.17,8.38-4.56,15.16,1.54-.45,2.34-.58,3.95-.71,2.05-.17,3.37-2.01,4.37-4.8.54-1.53.93-3.29,1.23-5.2.41-2.63.56-4.42.38-5.49-.18-1.07-.96-1.19-2.45-.51-1.2.55-1.79.86-2.92,1.55Z"/>
    <path class="cls-1" d="M26.77.08c1.57-.11,2.39-.11,3.96,0,3.54,10.21,5.7,20.33,7.62,30.94-1.86-.36-2.79-.55-4.66-.91-.37-2.75-.59-4.18-1.08-6.97-3.1-.51-4.67-.73-7.76-1-.62,2.54-.93,3.83-1.5,6.28-1.8-.21-2.69-.29-4.48-.38C21.09,18.61,24.09,9.38,26.77.08ZM26.16,16.9c2.14.14,3.22.25,5.36.54-1.05-5.07-1.64-7.46-2.67-11.69-.92,4.16-1.51,6.44-2.69,11.15Z"/>
    <path class="cls-1" d="M38.32,1.65c1.32.47,1.96.74,3.2,1.36,5.12,7.61,8.19,12.39,11.98,21.14-.76-8.17-2.36-12.01-6.74-17.77.95.77,1.4,1.18,2.27,2.04,7.43,7.43,9.73,13.99,8.06,24.73-1.62.06-2.44.05-4.09-.03-2.04-8.4-4.62-14.06-9.38-22.84,1.91,7.84,2.27,12.97,1.23,21.93-1.58-.25-2.37-.4-3.96-.69.34-10.21.62-19.99-2.57-29.86Z"/>
  </g>
  <g>
    <path class="cls-3" d="M4.21,32.32c1.07-.24,1.61-.31,2.72-.38,1.86,10.23,3.96,15.43,8.19,24.54-.71-.37-1.06-.56-1.73-.97-.94-1.76-1.4-2.67-2.28-4.52-1.27-.54-1.89-.81-3.07-1.35.6,1.45.96,2.12,1.78,3.33-.58-.48-.87-.73-1.42-1.25-4.5-4.82-5.39-9.33-4.19-19.39ZM6.97,46.4c.92.23,1.4.36,2.37.64-1.54-3.66-2.24-5.56-3.32-9.34-.03,3.79.16,5.56.96,8.69Z"/>
    <path class="cls-3" d="M16.11,56.97c-2.86-8.8-3.83-14.24-3.77-25.61.93-.08,1.4-.1,2.34-.13-.05,4.46.05,6.65.42,10.83,1.65.16,2.49.25,4.18.45-.23-4.33-.28-6.59-.19-11.21.95.05,1.42.09,2.37.18-.25,12.2.16,18.05,1.47,27.75-.74-.15-1.11-.23-1.83-.43-.75-4.28-1.06-6.6-1.48-11.49-1.62-.24-2.42-.37-4-.63.64,4.7,1.09,6.93,2.18,11.02-.69-.27-1.02-.42-1.69-.73Z"/>
    <path class="cls-3" d="M31.37,32.91c1.38.25,2.07.38,3.45.65-.26,11.41-.52,16.86-1.18,25.86-.7.12-1.06.16-1.77.24.22-6.26.32-9.81.5-17.3.01-.54.03-1.3.06-2.28.03-.99.05-1.75.06-2.29-1.09,9.44-1.65,14.04-2.37,22-.76.03-1.14.04-1.91.02-.98-8.08-1.59-12.86-2.37-22.95,0,.56,0,1.37,0,2.39,0,1.03.01,1.82.01,2.38.05,7.82.19,11.53.62,18.09-.72-.06-1.08-.09-1.79-.19-.96-9.73-1.25-15.59-.98-27.81,1.39.17,2.09.27,3.49.49.62,9.66,1.14,14.28,1.95,22.33.67-8,1.19-12.49,2.22-21.62Z"/>
    <path class="cls-3" d="M45.02,39.64c-2.28-.14-3.44-.26-5.76-.52-.12,2.21-.19,3.3-.36,5.42,2.06.05,3.07.05,5.07-.02-.22,1.57-.35,2.33-.63,3.83-1.89.26-2.86.34-4.82.44-.25,2.46-.4,3.66-.71,5.94,2.04-.37,3.04-.62,4.95-1.25-.39,1.4-.61,2.08-1.05,3.38-2.37,1.15-3.64,1.61-6.27,2.21,1.02-8.69,1.4-13.99,1.68-25.07,3.31.63,4.96.96,8.21,1.44-.09,1.71-.15,2.55-.31,4.2Z"/>
    <path class="cls-3" d="M53.99,36.67c.7.46,1.2,1.24,1.39,2.3.15.86.12,1.75-.11,2.7-.23.95-.56,1.83-.97,2.66-1.04,2.11-2.39,3.85-3.75,5.42-1.83,2.12-3.25,3.6-4.32,4.39-1.21.89-1.85,1.3-3.18,2.04,2.87-6.88,3.91-11.23,4.5-20.42,1.93.24,2.89.34,4.79.44.68.06,1.23.22,1.65.49ZM49.4,39.72c-.8,5.51-1.54,8.1-3.45,12.63.64-.29.96-.44,1.58-.76.8-.41,1.79-1.46,2.94-3.17.63-.94,1.24-2,1.75-3.25.71-1.73.98-3.1.91-4.07-.07-.97-.65-1.45-1.66-1.42-.82.03-1.24.03-2.07.03Z"/>
  </g>
  <g>
    <path class="cls-1" d="M4.1,30.1c1.07-.27,1.62-.35,2.74-.44,1.82,10.5,4.02,15.89,8.41,25.2-.7-.38-1.05-.58-1.72-1.01-.98-1.8-1.46-2.73-2.37-4.62-1.27-.55-1.88-.83-3.06-1.38.65,1.48,1.03,2.16,1.9,3.37-.58-.5-.86-.77-1.4-1.31-4.8-4.79-5.76-9.43-4.5-19.8ZM6.95,44.54c.92.23,1.4.37,2.37.65-1.6-3.75-2.32-5.7-3.42-9.57-.02,3.9.19,5.72,1.04,8.93Z"/>
    <path class="cls-1" d="M16.23,55.37c-3.02-8.99-4.04-14.6-3.93-26.33.94-.09,1.41-.12,2.36-.15-.07,4.61.03,6.86.41,11.16,1.67.16,2.51.25,4.21.45-.24-4.47-.28-6.8-.18-11.57.95.05,1.43.08,2.39.17-.3,9.41.18,19.27,1.53,28.6-.74-.15-1.1-.24-1.83-.44-.8-4.38-1.12-6.77-1.56-11.8-1.63-.24-2.44-.37-4.02-.63.67,4.84,1.15,7.13,2.29,11.31-.68-.28-1.02-.43-1.68-.76Z"/>
    <path class="cls-1" d="M31.49,30.56c1.39.26,2.09.39,3.48.67-.27,11.79-.53,17.43-1.22,26.65-.7.12-1.06.17-1.77.25.23-6.42.33-10.08.52-17.81.01-.56.04-1.34.07-2.36.03-1.02.05-1.81.06-2.37-1.1,9.76-1.68,14.51-2.39,22.67-.76.04-1.15.04-1.91.03-1-8.29-1.63-13.23-2.4-23.65,0,.58,0,1.41,0,2.47,0,1.06,0,1.88.01,2.46.05,8.08.2,11.9.65,18.63-.72-.06-1.08-.1-1.79-.2-1-9.43-1.32-19.19-1.03-28.67,1.4.17,2.11.27,3.52.49.61,9.98,1.14,14.76,1.96,23.03.67-8.23,1.2-12.87,2.24-22.31Z"/>
    <path class="cls-1" d="M45.25,37.52c-2.3-.15-3.47-.27-5.82-.55-.12,2.28-.19,3.41-.36,5.59,2.07.06,3.1.06,5.11-.02-.23,1.61-.36,2.4-.66,3.94-1.9.26-2.88.35-4.85.46-.26,2.54-.41,3.77-.74,6.11,2.05-.39,3.04-.65,4.96-1.3-.41,1.44-.63,2.13-1.1,3.46-2.36,1.19-3.62,1.66-6.25,2.29,1.07-8.91,1.46-14.38,1.74-25.83,3.33.66,5,1,8.28,1.5-.08,1.76-.15,2.63-.31,4.34Z"/>
    <path class="cls-1" d="M54.3,34.49c.71.47,1.21,1.28,1.4,2.37.15.88.11,1.8-.13,2.78-.24.97-.59,1.88-1.01,2.73-1.08,2.17-2.49,3.94-3.89,5.54-1.89,2.17-3.34,3.68-4.39,4.48-1.2.92-1.83,1.34-3.15,2.1,3.01-7.02,4.1-11.51,4.67-20.99,1.95.25,2.92.36,4.84.47.69.06,1.24.23,1.66.51ZM49.67,37.61c-.81,5.67-1.58,8.35-3.59,12.98.64-.3.96-.45,1.58-.78.79-.42,1.81-1.5,2.99-3.24.65-.96,1.28-2.05,1.82-3.34.74-1.77,1.02-3.18.95-4.18-.06-1-.65-1.5-1.67-1.47-.83.02-1.25.03-2.09.02Z"/>
  </g>
  <g>
    <path class="cls-2" d="M84.35,15.47c.83-.06,1.35.48,1.65,1.74.24,1.02.36,2.32.3,3.82-.06,1.5-.16,3.02-.36,4.5-.5,3.74-1.3,7.1-2.73,9.48-1.92,3.2-4.52,4.09-7.45,5.3-3.34,1.37-4.64,3.02-7.52,6.02-1.47-8.48,2.03-19.55,8.18-25.61,2.12-2.03,3.3-2.94,5.84-4.43.9-.52,1.59-.78,2.08-.82ZM76.43,21.92c-3.58,5.54-4.76,9.01-4.98,16.31,1.35-1.09,2.04-1.58,3.52-2.3,1.9-.91,3.4-2.43,4.56-5.13.63-1.48,1.12-3.19,1.54-5.07.58-2.59.89-4.37.81-5.41-.09-1.04-.88-1.2-2.43-.35-1.25.69-1.85,1.09-3.02,1.95Z"/>
    <path class="cls-2" d="M96.51,12.12c1.71-.14,2.6-.15,4.31-.07,2.23,9.17,4.79,15.32,7.49,26.28-1.93.15-2.9.31-4.89.84-.57-2.27-.9-3.49-1.51-5.84-3.32.78-5.73,2.35-8.15,2.68-.41,2.83-.59,4.28-.91,6.98-1.61-.06-2.72-.33-5-.99,2.25-10.02,5.04-20.26,8.67-29.88ZM94.71,30.16c1.55-.38,3.63-1.23,5.93-1.71-1.12-4.42-1.67-6.58-2.45-10.66-1.33,4.34-2.53,7.1-3.48,12.37Z"/>
    <path class="cls-2" d="M109.08,13.61c1.44.48,2.14.76,3.51,1.4,4.4,6.36,7.51,10.29,11.75,19-1.06-7.06-2.39-10.34-5.94-15.47,1.05.81,1.57,1.23,2.54,2.11,6.37,6.99,8.61,12.32,8.31,22.43-2.06-.13-2.79-.39-4.82-1.3-3.6-9.21-6.19-13.65-10.57-20.98,1.32,6.31,1.72,10.38,1.28,17.93-1.69-.31-2.52-.41-4.18-.45.46-10.94-.14-16.9-1.87-24.67Z"/>
  </g>
  <g>
    <path class="cls-2" d="M71.97,46.2c.91-.69,1.37-1.01,2.33-1.53,2.97,9.51,5.38,15.06,9.76,24.96-.78-.38-1.16-.59-1.9-1.01-.95-1.9-1.43-2.86-2.34-4.78-1.31-.42-1.93-.62-3.13-1.04.56,1.41.88,2.06,1.58,3.21-.64-.5-.95-.75-1.55-1.29-3.76-4.27-4.59-8.32-4.75-18.54ZM75.64,59.63c.9.07,1.36.1,2.31.21-1.66-3.65-2.44-5.47-3.79-8.97.35,3.89.64,5.67,1.48,8.76Z"/>
    <path class="cls-2" d="M85.15,70.15c-2.9-9.52-4.08-15.11-5.46-26.81,1.04.04,1.56.05,2.77.52.45,4.51.73,6.71,1.37,10.96,2.02.77,3.11,1.15,5.14,1.71-.34-4.13-.49-6.27-.74-10.66,1.2.35,1.78.5,2.84.71.5,11.42.81,16.87,1.57,26.01-.81-.16-1.21-.25-2-.46-.56-4.13-.81-6.36-1.25-11.02-1.9-.52-2.9-.86-4.78-1.57.85,4.81,1.33,7.11,2.4,11.4-.76-.3-1.13-.45-1.85-.78Z"/>
    <path class="cls-2" d="M101.19,44.01c1.52-.51,2.26-.72,3.73-1.04.52,9.76.33,19.89-.63,29.63-.76.14-1.15.19-1.92.29.43-7.02.55-10.94.45-19.18,0-.59-.02-1.43-.03-2.51-.02-1.08-.04-1.93-.06-2.52-.62,10.74-1.23,15.82-2.26,24.39-.82.05-1.24.07-2.08.07-.83-8.2-1.51-12.79-3.14-21.89.03.54.09,1.3.15,2.28.07.98.12,1.73.15,2.27.45,7.47.62,11.01.93,17.3-.79-.04-1.16-.08-1.93-.18-.48-9.14-.71-14.6-1.24-26.05,1.22.02,1.49-.2,3.13-.96,1.57,8.93,2.23,13.44,3.05,21.7.8-8.45,1.27-13.34,1.68-23.59Z"/>
    <path class="cls-2" d="M116.03,47.94c-2.46-.2-3.67-.2-6.12,0,.01,2.66,0,3.97-.1,6.53,2.17-.27,3.23-.35,5.38-.43-.16,1.97-.27,2.93-.52,4.83-2.03.27-3.06.42-5.14.76-.21,3-.36,4.45-.7,7.27,2.19-.52,3.25-.81,5.33-1.45-.41,1.8-.64,2.67-1.13,4.36-2.58,1.23-3.95,1.72-6.81,2.4,1.28-9.67,1.63-19.92,1.11-29.65,3.48-.47,5.16-.43,8.69.15.06,2.12.06,3.17,0,5.24Z"/>
    <path class="cls-2" d="M125.94,46.1c.83.76,1.5,1.77,1.82,3.07.26,1.06.29,2.13.08,3.26s-.54,2.18-.98,3.16c-1.1,2.5-2.61,4.54-4.12,6.36-2.03,2.45-3.6,4.13-4.76,4.95-1.33.93-2.02,1.36-3.47,2.14,3.13-8.92,4.16-14.39,3.97-25.86,2.15.51,3.25.86,5.56,1.73.83.33,1.41.74,1.9,1.19ZM120.88,48.52c-.48,6.85-1.2,10.11-3.24,15.87.71-.26,1.06-.39,1.75-.67.89-.35,1.97-1.53,3.2-3.51.68-1.09,1.33-2.34,1.86-3.84.73-2.06.95-3.72.81-4.96-.13-1.24-.78-2.06-1.98-2.35-.98-.24-1.46-.35-2.41-.53Z"/>
  </g>
  <g>
    <path class="cls-1" d="M84.39,12.9c.8-.08,1.25.43,1.5,1.73.2,1.05.28,2.4.19,3.96-.09,1.57-.22,3.17-.43,4.72-.55,3.93-1.37,7.48-2.81,9.99-1.94,3.37-4.48,4.43-7.42,5.78-3.35,1.54-4.64,3.3-7.57,6.4-1.83-9.02,1.97-20.88,8.74-27.15,2.08-2.08,3.25-3.01,5.77-4.55.89-.54,1.57-.83,2.03-.87ZM76.29,19.63c-3.93,5.82-5.22,9.53-5.32,17.32,1.37-1.15,2.06-1.68,3.55-2.47,1.91-1,3.4-2.65,4.58-5.53.64-1.58,1.15-3.39,1.6-5.36.63-2.72,1-4.58.96-5.66-.04-1.08-.81-1.22-2.35-.33-1.26.72-1.86,1.14-3.02,2.03Z"/>
    <path class="cls-1" d="M96.54,9.24c1.71-.12,2.6-.12,4.31,0,2.33,9.3,5.32,18.4,7.6,27.72-1.96.15-2.95.32-4.97.87-.59-2.39-.91-3.67-1.53-6.17-3.39.81-5.81,2.45-8.29,2.76-.41,2.99-.59,4.51-.89,7.35-1.66-.09-2.8-.39-5.15-1.11,2.53-10.61,5.04-21.2,8.91-31.42ZM94.63,28.23c1.58-.38,3.68-1.26,6.04-1.75-1.15-4.68-1.7-6.98-2.48-11.27-1.37,4.55-2.58,7.45-3.55,13.02Z"/>
    <path class="cls-1" d="M109.12,10.95c1.44.51,2.14.81,3.49,1.48,4.61,6.6,7.81,10.91,12.25,19.94-1.1-7.49-2.59-10.96-6.54-16.27,1.03.84,1.53,1.28,2.47,2.22,7.12,7.12,9.53,12.81,9.12,23.34-2.13,0-3.2-.19-4.99-1.03-3.03-9.47-6.28-14.46-10.85-22.16,1.47,6.62,1.85,10.99,1.33,18.93-1.73-.34-2.57-.44-4.26-.49.52-11.49-.08-17.93-2.02-25.95Z"/>
  </g>
  <g>
    <path class="cls-1" d="M71.28,49.47c.91-.84,1.37-1.24,2.34-1.9,2.57,9.47,6.35,18.99,10.44,27.9-.77-.41-1.15-.63-1.88-1.09-1.07-2.1-1.6-3.16-2.62-5.29-1.31-.43-1.94-.63-3.15-1.06.67,1.56,1.05,2.26,1.91,3.5-.63-.55-.94-.83-1.53-1.41-4.56-4.5-5.52-9.06-5.5-20.65ZM75.16,64.51c.91.04,1.37.06,2.33.14-1.82-4.06-2.66-6.1-4.04-10,.37,4.41.71,6.41,1.71,9.86Z"/>
    <path class="cls-1" d="M85.13,76.02c-3.24-9.94-4.69-20.04-6.1-30.35,1.05-.03,1.55-.14,2.8.36.46,5.16.76,7.69,1.48,12.54,2.07.8,3.21,1.2,5.31,1.8-.39-4.71-.55-7.17-.81-12.2,1.25.38,1.85.55,2.94.77.37,9.86.93,19.75,1.8,29.57-.81-.16-1.21-.26-1.99-.47-.66-4.63-.96-7.15-1.47-12.46-1.96-.55-2.99-.91-4.9-1.64.97,5.47,1.53,8.08,2.78,12.89-.75-.3-1.11-.47-1.83-.81Z"/>
    <path class="cls-1" d="M100.98,46.1c1.55-.56,2.3-.79,3.79-1.12.37,11.28.63,22.4-.53,33.65-.76.14-1.15.19-1.92.28.51-7.86.65-12.33.47-21.73-.01-.68-.03-1.63-.06-2.86-.03-1.24-.06-2.2-.09-2.88-.49,12.26-1.14,18.05-2.22,27.63-.82.04-1.24.05-2.08.04-.84-9.17-2.05-14.13-3.3-24.84.04.62.1,1.49.17,2.61.07,1.12.13,1.98.17,2.59.52,8.51.72,12.54,1.06,19.56-.79-.06-1.18-.1-1.95-.2-.53-9.86-.97-19.73-1.41-29.59,1.24.03,1.41-.17,3.08-1.02,1.73,10.2,2.45,15.38,3.29,24.7.8-9.52,1.29-15.11,1.52-26.82Z"/>
    <path class="cls-1" d="M116.24,50.96c-2.54-.31-3.77-.35-6.27-.19.06,3.04.06,4.53-.02,7.45,2.22-.25,3.31-.31,5.52-.33-.16,2.24-.27,3.34-.54,5.48-2.08.24-3.13.38-5.25.71-.23,3.4-.39,5.06-.79,8.23,2.21-.53,3.29-.83,5.38-1.49-.47,2.02-.74,3-1.31,4.88-2.56,1.31-3.93,1.83-6.79,2.53,1.56-11.26,1.36-22.36,1.05-33.68,3.53-.45,5.23-.35,8.86.43.14,2.42.17,3.62.16,5.98Z"/>
    <path class="cls-1" d="M126.34,49.19c.9.87,1.66,2.03,2.04,3.53.31,1.21.37,2.44.16,3.73s-.57,2.48-1.04,3.6c-1.2,2.84-2.9,5.12-4.58,7.13-2.26,2.71-3.94,4.52-5.09,5.4-1.3,1.01-1.99,1.47-3.42,2.3,3.39-8.78,4.86-19.93,4.17-29.26,2.22.67,3.36,1.11,5.78,2.19.87.41,1.44.86,1.97,1.37ZM121.25,51.81c-.32,7.8-1.12,11.51-3.47,17.94.71-.27,1.07-.41,1.77-.69.89-.36,2.05-1.66,3.41-3.87.75-1.22,1.47-2.63,2.04-4.32.79-2.33,1-4.22.83-5.64-.16-1.41-.83-2.33-2.08-2.72-1.02-.31-1.52-.45-2.51-.7Z"/>
  </g>
</svg>